<svg xmlns="http://www.w3.org/2000/svg" xmlns:xlink="http://www.w3.org/1999/xlink" width="1366" zoomAndPan="magnify" viewBox="0 0 1024.5 576" height="768" preserveAspectRatio="xMidYMid meet" version="1.0"><defs><g/></defs><g fill="#ffffff" fill-opacity="1"><g transform="translate(13.442215, 149.02501)"><g><path d="M 122.765625 0 L 99.359375 0 L 88.546875 -21.984375 L 35.625 -21.984375 L 24.9375 0 L 1.53125 0 L 49.265625 -95.375 L 74.796875 -95.375 Z M 79.5 -40.8125 L 62.09375 -76.546875 L 44.796875 -40.8125 Z M 79.5 -40.8125 "/></g></g></g><g fill="#ffffff" fill-opacity="1"><g transform="translate(129.27251, 149.02501)"><g/></g></g><g fill="#ffffff" fill-opacity="1"><g transform="translate(145.970893, 149.02501)"><g><path d="M 86.203125 -21.875 L 86.203125 -95.375 L 108.0625 -95.375 L 108.0625 0 L 78.4375 0 L 27.984375 -76.078125 L 27.984375 0 L 6 0 L 6 -95.375 L 36.8125 -95.375 Z M 86.203125 -21.875 "/></g></g></g><g fill="#ffffff" fill-opacity="1"><g transform="translate(251.805664, 149.02501)"><g><path d="M 92.65625 -31.515625 L 92.65625 -30.21875 L 27.28125 -30.21875 C 28.375 -26.21875 30.878906 -23.0625 34.796875 -20.75 C 38.722656 -18.4375 44.253906 -17.28125 51.390625 -17.28125 C 56.722656 -17.28125 61.875 -17.945312 66.84375 -19.28125 C 71.820312 -20.613281 76.234375 -22.144531 80.078125 -23.875 L 89.71875 -6.828125 C 87.21875 -5.492188 83.925781 -4.140625 79.84375 -2.765625 C 75.769531 -1.390625 71.222656 -0.273438 66.203125 0.578125 C 61.179688 1.441406 56.007812 1.875 50.6875 1.875 C 41.59375 1.875 33.578125 0.40625 26.640625 -2.53125 C 19.703125 -5.46875 14.289062 -9.660156 10.40625 -15.109375 C 6.53125 -20.554688 4.59375 -27.082031 4.59375 -34.6875 L 4.59375 -34.921875 C 4.59375 -41.984375 6.394531 -48.253906 10 -53.734375 C 13.601562 -59.222656 18.734375 -63.535156 25.390625 -66.671875 C 32.054688 -69.804688 39.898438 -71.375 48.921875 -71.375 C 57.234375 -71.375 64.679688 -69.960938 71.265625 -67.140625 C 77.847656 -64.316406 83.054688 -59.96875 86.890625 -54.09375 C 90.734375 -48.21875 92.65625 -40.691406 92.65625 -31.515625 Z M 48.796875 -53.96875 C 43.785156 -53.96875 39.4375 -53.007812 35.75 -51.09375 C 32.0625 -49.175781 29.472656 -46.253906 27.984375 -42.328125 L 70.203125 -42.328125 C 69.109375 -45.859375 66.660156 -48.679688 62.859375 -50.796875 C 59.054688 -52.910156 54.367188 -53.96875 48.796875 -53.96875 Z M 48.796875 -53.96875 "/></g></g></g><g fill="#ffffff" fill-opacity="1"><g transform="translate(340.706869, 149.02501)"><g><path d="M 99.125 -33.515625 L 107.828125 -68.4375 L 131.46875 -68.4375 L 111.25 0 L 82.4375 0 L 71.84375 -33.515625 C 71.0625 -36.023438 70.257812 -38.492188 69.4375 -40.921875 C 68.613281 -43.347656 67.8125 -45.78125 67.03125 -48.21875 C 66.25 -45.78125 65.445312 -43.347656 64.625 -40.921875 C 63.800781 -38.492188 62.992188 -36.0625 62.203125 -33.625 L 51.5 0 L 22.8125 0 L 2.59375 -68.4375 L 26.21875 -68.4375 L 34.8125 -33.75 C 35.4375 -31.164062 36.097656 -28.578125 36.796875 -25.984375 C 37.503906 -23.398438 38.175781 -20.851562 38.8125 -18.34375 L 43.859375 -33.625 L 54.453125 -68.4375 L 79.140625 -68.4375 L 89.953125 -33.515625 L 95.140625 -18.234375 C 95.765625 -20.734375 96.425781 -23.257812 97.125 -25.8125 C 97.832031 -28.363281 98.5 -30.929688 99.125 -33.515625 Z M 99.125 -33.515625 "/></g></g></g><g fill="#ffffff" fill-opacity="1"><g transform="translate(466.415077, 149.02501)"><g/></g></g><g fill="#ffffff" fill-opacity="1"><g transform="translate(483.113474, 149.02501)"><g><path d="M 117.71875 -22.578125 L 138.171875 -95.375 L 162.15625 -95.375 L 133.34375 0 L 103.828125 0 L 82.203125 -72.3125 L 61.96875 0 L 32.578125 0 L 2.234375 -95.375 L 26.21875 -95.375 L 47.984375 -22.703125 L 68.328125 -95.375 L 95.953125 -95.375 Z M 117.71875 -22.578125 "/></g></g></g><g fill="#ffffff" fill-opacity="1"><g transform="translate(639.160965, 149.02501)"><g><path d="M 49.03125 -71.375 C 59.144531 -71.375 67.125 -70.414062 72.96875 -68.5 C 78.8125 -66.582031 82.96875 -63.660156 85.4375 -59.734375 C 87.90625 -55.816406 89.140625 -50.835938 89.140625 -44.796875 L 89.140625 -1.640625 C 83.722656 -0.859375 78.269531 -0.195312 72.78125 0.34375 C 67.300781 0.894531 62.070312 1.304688 57.09375 1.578125 C 52.113281 1.859375 47.664062 2 43.75 2 C 30.882812 2 21.117188 0.238281 14.453125 -3.28125 C 7.796875 -6.8125 4.46875 -12.5 4.46875 -20.34375 L 4.46875 -20.46875 C 4.46875 -24.769531 5.722656 -28.488281 8.234375 -31.625 C 10.742188 -34.769531 14.78125 -37.222656 20.34375 -38.984375 C 25.90625 -40.742188 33.3125 -41.625 42.5625 -41.625 C 46.25 -41.625 50.050781 -41.566406 53.96875 -41.453125 C 57.894531 -41.335938 62.09375 -41.082031 66.5625 -40.6875 L 66.5625 -41.046875 C 66.5625 -43.628906 66.03125 -45.800781 64.96875 -47.5625 C 63.914062 -49.332031 61.859375 -50.6875 58.796875 -51.625 C 55.734375 -52.5625 51.144531 -53.03125 45.03125 -53.03125 C 39.3125 -53.03125 33.316406 -52.597656 27.046875 -51.734375 C 20.773438 -50.878906 14.859375 -49.742188 9.296875 -48.328125 L 14.34375 -67.609375 C 19.4375 -68.628906 25 -69.507812 31.03125 -70.25 C 37.070312 -71 43.070312 -71.375 49.03125 -71.375 Z M 27.046875 -21.640625 L 27.046875 -21.515625 C 27.046875 -19.085938 28.710938 -17.285156 32.046875 -16.109375 C 35.378906 -14.929688 41.316406 -14.34375 49.859375 -14.34375 C 53.773438 -14.34375 57.125 -14.398438 59.90625 -14.515625 C 62.695312 -14.640625 65.070312 -14.816406 67.03125 -15.046875 L 67.03125 -27.875 C 64.601562 -28.257812 61.835938 -28.53125 58.734375 -28.6875 C 55.640625 -28.84375 52.679688 -28.921875 49.859375 -28.921875 C 41.859375 -28.921875 36.054688 -28.390625 32.453125 -27.328125 C 28.847656 -26.273438 27.046875 -24.378906 27.046875 -21.640625 Z M 27.046875 -21.640625 "/></g></g></g><g fill="#ffffff" fill-opacity="1"><g transform="translate(726.063079, 149.02501)"><g><path d="M 68.796875 -21.40625 L 68.796875 -67.96875 L 90.90625 -67.96875 L 90.90625 0.59375 C 90.90625 6.625 89.664062 11.617188 87.1875 15.578125 C 84.71875 19.535156 80.5625 22.472656 74.71875 24.390625 C 68.882812 26.316406 60.910156 27.28125 50.796875 27.28125 C 44.609375 27.28125 38.648438 26.890625 32.921875 26.109375 C 27.203125 25.328125 21.910156 24.425781 17.046875 23.40625 L 12 3.0625 C 17.476562 4.394531 23.609375 5.550781 30.390625 6.53125 C 37.171875 7.507812 43.816406 8 50.328125 8 C 57.378906 8 62.21875 7.210938 64.84375 5.640625 C 67.476562 4.078125 68.796875 1.492188 68.796875 -2.109375 L 68.796875 -4.828125 C 65.265625 -4.429688 61.617188 -4.09375 57.859375 -3.8125 C 54.097656 -3.539062 50.375 -3.40625 46.6875 -3.40625 C 36.644531 -3.40625 28.644531 -4.363281 22.6875 -6.28125 C 16.738281 -8.207031 12.46875 -11.425781 9.875 -15.9375 C 7.289062 -20.445312 6 -26.503906 6 -34.109375 L 6 -68.4375 L 28.109375 -68.4375 L 28.109375 -33.75 C 28.109375 -29.988281 28.867188 -27.109375 30.390625 -25.109375 C 31.921875 -23.109375 34.132812 -21.753906 37.03125 -21.046875 C 39.9375 -20.335938 43.429688 -19.984375 47.515625 -19.984375 C 49.628906 -19.984375 51.957031 -20.0625 54.5 -20.21875 C 57.050781 -20.382812 59.597656 -20.5625 62.140625 -20.75 C 64.691406 -20.945312 66.910156 -21.164062 68.796875 -21.40625 Z M 68.796875 -21.40625 "/></g></g></g><g fill="#ffffff" fill-opacity="1"><g transform="translate(13.442215, 263.055779)"><g><path d="M 63.265625 0 L 41.390625 0 L 41.390625 -74.90625 L 2.359375 -74.90625 L 2.359375 -95.375 L 102.3125 -95.375 L 102.3125 -74.90625 L 63.265625 -74.90625 Z M 63.265625 0 "/></g></g></g><g fill="#ffffff" fill-opacity="1"><g transform="translate(109.751871, 263.055779)"><g><path d="M 52.6875 2 C 42.644531 2 34.019531 0.453125 26.8125 -2.640625 C 19.601562 -5.742188 14.097656 -10.054688 10.296875 -15.578125 C 6.492188 -21.109375 4.59375 -27.476562 4.59375 -34.6875 L 4.59375 -34.921875 C 4.59375 -42.210938 6.492188 -48.601562 10.296875 -54.09375 C 14.097656 -59.582031 19.601562 -63.851562 26.8125 -66.90625 C 34.019531 -69.96875 42.644531 -71.5 52.6875 -71.5 C 62.800781 -71.5 71.441406 -69.96875 78.609375 -66.90625 C 85.785156 -63.851562 91.273438 -59.582031 95.078125 -54.09375 C 98.878906 -48.601562 100.78125 -42.210938 100.78125 -34.921875 L 100.78125 -34.6875 C 100.78125 -27.476562 98.878906 -21.109375 95.078125 -15.578125 C 91.273438 -10.054688 85.785156 -5.742188 78.609375 -2.640625 C 71.441406 0.453125 62.800781 2 52.6875 2 Z M 52.6875 -17.75 C 60.601562 -17.75 66.890625 -19.335938 71.546875 -22.515625 C 76.210938 -25.691406 78.546875 -29.789062 78.546875 -34.8125 L 78.546875 -35.046875 C 78.546875 -40.140625 76.234375 -44.191406 71.609375 -47.203125 C 66.984375 -50.222656 60.675781 -51.734375 52.6875 -51.734375 C 44.6875 -51.734375 38.375 -50.222656 33.75 -47.203125 C 29.125 -44.191406 26.8125 -40.140625 26.8125 -35.046875 L 26.8125 -34.8125 C 26.8125 -29.789062 29.144531 -25.691406 33.8125 -22.515625 C 38.476562 -19.335938 44.769531 -17.75 52.6875 -17.75 Z M 52.6875 -17.75 "/></g></g></g><g fill="#ffffff" fill-opacity="1"><g transform="translate(206.787844, 263.055779)"><g/></g></g><g fill="#ffffff" fill-opacity="1"><g transform="translate(13.442215, 377.086548)"><g><path d="M 51.96875 1.53125 C 42.019531 1.53125 32.769531 0.726562 24.21875 -0.875 C 15.675781 -2.488281 8.816406 -4.550781 3.640625 -7.0625 L 13.640625 -25.75 C 18.734375 -23.320312 24.472656 -21.554688 30.859375 -20.453125 C 37.253906 -19.359375 43.863281 -18.8125 50.6875 -18.8125 C 58.675781 -18.8125 64.863281 -19.414062 69.25 -20.625 C 73.644531 -21.84375 75.84375 -23.90625 75.84375 -26.8125 L 75.84375 -27.046875 C 75.84375 -28.847656 74.898438 -30.351562 73.015625 -31.5625 C 71.140625 -32.78125 68.101562 -33.921875 63.90625 -34.984375 C 59.71875 -36.046875 54.171875 -37.242188 47.265625 -38.578125 C 38.410156 -40.296875 31.082031 -42.367188 25.28125 -44.796875 C 19.476562 -47.234375 15.164062 -50.390625 12.34375 -54.265625 C 9.519531 -58.148438 8.109375 -63.070312 8.109375 -69.03125 L 8.109375 -69.265625 C 8.109375 -78.203125 11.867188 -85.0625 19.390625 -89.84375 C 26.921875 -94.625 37.78125 -97.015625 51.96875 -97.015625 C 57.539062 -97.015625 63.109375 -96.601562 68.671875 -95.78125 C 74.242188 -94.957031 79.4375 -93.859375 84.25 -92.484375 C 89.070312 -91.109375 93.171875 -89.519531 96.546875 -87.71875 L 86.546875 -69.5 C 83.804688 -70.988281 80.375 -72.257812 76.25 -73.3125 C 72.132812 -74.375 67.84375 -75.195312 63.375 -75.78125 C 58.914062 -76.375 54.6875 -76.671875 50.6875 -76.671875 C 43.78125 -76.671875 38.703125 -76.082031 35.453125 -74.90625 C 32.203125 -73.726562 30.535156 -71.925781 30.453125 -69.5 L 30.453125 -69.265625 C 30.453125 -67.847656 31.078125 -66.59375 32.328125 -65.5 C 33.585938 -64.40625 35.941406 -63.347656 39.390625 -62.328125 C 42.835938 -61.304688 47.773438 -60.128906 54.203125 -58.796875 C 62.828125 -57.148438 69.984375 -55.347656 75.671875 -53.390625 C 81.359375 -51.429688 85.863281 -49.234375 89.1875 -46.796875 C 92.519531 -44.367188 94.890625 -41.523438 96.296875 -38.265625 C 97.710938 -35.015625 98.421875 -31.273438 98.421875 -27.046875 L 98.421875 -26.8125 C 98.421875 -17.476562 94.421875 -10.421875 86.421875 -5.640625 C 78.429688 -0.859375 66.945312 1.53125 51.96875 1.53125 Z M 51.96875 1.53125 "/></g></g></g><g fill="#ffffff" fill-opacity="1"><g transform="translate(108.223144, 377.086548)"><g><path d="M 49.734375 -71.5 C 59.847656 -71.5 67.863281 -70.519531 73.78125 -68.5625 C 79.707031 -66.601562 83.960938 -63.390625 86.546875 -58.921875 C 89.128906 -54.453125 90.421875 -48.414062 90.421875 -40.8125 L 90.421875 0 L 68.328125 0 L 68.328125 -37.15625 C 68.328125 -42.957031 66.660156 -46.835938 63.328125 -48.796875 C 59.992188 -50.753906 55.191406 -51.734375 48.921875 -51.734375 C 45.316406 -51.734375 41.59375 -51.535156 37.75 -51.140625 C 33.90625 -50.753906 30.691406 -50.367188 28.109375 -49.984375 L 28.109375 0 L 6 0 L 6 -95.375 L 28.109375 -95.375 L 28.109375 -69.96875 C 31.785156 -70.4375 35.46875 -70.804688 39.15625 -71.078125 C 42.84375 -71.359375 46.367188 -71.5 49.734375 -71.5 Z M 49.734375 -71.5 "/></g></g></g><g fill="#ffffff" fill-opacity="1"><g transform="translate(196.418798, 377.086548)"><g><path d="M 52.6875 2 C 42.644531 2 34.019531 0.453125 26.8125 -2.640625 C 19.601562 -5.742188 14.097656 -10.054688 10.296875 -15.578125 C 6.492188 -21.109375 4.59375 -27.476562 4.59375 -34.6875 L 4.59375 -34.921875 C 4.59375 -42.210938 6.492188 -48.601562 10.296875 -54.09375 C 14.097656 -59.582031 19.601562 -63.851562 26.8125 -66.90625 C 34.019531 -69.96875 42.644531 -71.5 52.6875 -71.5 C 62.800781 -71.5 71.441406 -69.96875 78.609375 -66.90625 C 85.785156 -63.851562 91.273438 -59.582031 95.078125 -54.09375 C 98.878906 -48.601562 100.78125 -42.210938 100.78125 -34.921875 L 100.78125 -34.6875 C 100.78125 -27.476562 98.878906 -21.109375 95.078125 -15.578125 C 91.273438 -10.054688 85.785156 -5.742188 78.609375 -2.640625 C 71.441406 0.453125 62.800781 2 52.6875 2 Z M 52.6875 -17.75 C 60.601562 -17.75 66.890625 -19.335938 71.546875 -22.515625 C 76.210938 -25.691406 78.546875 -29.789062 78.546875 -34.8125 L 78.546875 -35.046875 C 78.546875 -40.140625 76.234375 -44.191406 71.609375 -47.203125 C 66.984375 -50.222656 60.675781 -51.734375 52.6875 -51.734375 C 44.6875 -51.734375 38.375 -50.222656 33.75 -47.203125 C 29.125 -44.191406 26.8125 -40.140625 26.8125 -35.046875 L 26.8125 -34.8125 C 26.8125 -29.789062 29.144531 -25.691406 33.8125 -22.515625 C 38.476562 -19.335938 44.769531 -17.75 52.6875 -17.75 Z M 52.6875 -17.75 "/></g></g></g><g fill="#ffffff" fill-opacity="1"><g transform="translate(293.434019, 377.086548)"><g><path d="M 28.109375 25.875 L 6 25.875 L 6 -65.375 C 12.738281 -67.1875 19.28125 -68.675781 25.625 -69.84375 C 31.976562 -71.019531 38.921875 -71.609375 46.453125 -71.609375 C 55.929688 -71.609375 64.160156 -70.140625 71.140625 -67.203125 C 78.117188 -64.265625 83.546875 -60.070312 87.421875 -54.625 C 91.304688 -49.175781 93.25 -42.648438 93.25 -35.046875 L 93.25 -34.8125 C 93.25 -27.28125 91.425781 -20.8125 87.78125 -15.40625 C 84.132812 -10 78.921875 -5.820312 72.140625 -2.875 C 65.359375 0.0625 57.1875 1.53125 47.625 1.53125 C 44.40625 1.53125 41.015625 1.351562 37.453125 1 C 33.890625 0.644531 30.773438 0.191406 28.109375 -0.359375 Z M 46.6875 -18.234375 C 54.601562 -18.234375 60.640625 -19.640625 64.796875 -22.453125 C 68.953125 -25.273438 71.03125 -29.394531 71.03125 -34.8125 L 71.03125 -35.046875 C 71.03125 -40.453125 68.910156 -44.601562 64.671875 -47.5 C 60.441406 -50.40625 54.367188 -51.859375 46.453125 -51.859375 C 43.628906 -51.859375 40.550781 -51.679688 37.21875 -51.328125 C 33.882812 -50.972656 30.847656 -50.5625 28.109375 -50.09375 L 28.109375 -19.984375 C 30.378906 -19.597656 33.195312 -19.207031 36.5625 -18.8125 C 39.9375 -18.425781 43.3125 -18.234375 46.6875 -18.234375 Z M 46.6875 -18.234375 "/></g></g></g><g fill="#ffffff" fill-opacity="1"><g transform="translate(382.817276, 377.086548)"><g/></g></g><g fill="#ffffff" fill-opacity="1"><g transform="translate(13.442215, 491.117318)"><g><path d="M 63.5 1.53125 C 51.269531 1.53125 40.765625 -0.523438 31.984375 -4.640625 C 23.203125 -8.753906 16.441406 -14.515625 11.703125 -21.921875 C 6.960938 -29.335938 4.59375 -37.945312 4.59375 -47.75 L 4.59375 -47.984375 C 4.59375 -57.773438 6.960938 -66.351562 11.703125 -73.71875 C 16.441406 -81.09375 23.203125 -86.816406 31.984375 -90.890625 C 40.765625 -94.972656 51.269531 -97.015625 63.5 -97.015625 C 75.726562 -97.015625 86.234375 -94.972656 95.015625 -90.890625 C 103.796875 -86.816406 110.535156 -81.09375 115.234375 -73.71875 C 119.941406 -66.351562 122.296875 -57.773438 122.296875 -47.984375 L 122.296875 -47.75 C 122.296875 -37.945312 119.941406 -29.335938 115.234375 -21.921875 C 110.535156 -14.515625 103.796875 -8.753906 95.015625 -4.640625 C 86.234375 -0.523438 75.726562 1.53125 63.5 1.53125 Z M 63.5 -18.9375 C 70.945312 -18.9375 77.394531 -20.109375 82.84375 -22.453125 C 88.289062 -24.804688 92.503906 -28.140625 95.484375 -32.453125 C 98.460938 -36.765625 99.953125 -41.820312 99.953125 -47.625 L 99.953125 -47.75 C 99.953125 -53.625 98.460938 -58.71875 95.484375 -63.03125 C 92.503906 -67.34375 88.289062 -70.671875 82.84375 -73.015625 C 77.394531 -75.367188 70.945312 -76.546875 63.5 -76.546875 C 51.894531 -76.546875 42.894531 -74 36.5 -68.90625 C 30.113281 -63.8125 26.921875 -56.757812 26.921875 -47.75 L 26.921875 -47.625 C 26.921875 -41.820312 28.410156 -36.765625 31.390625 -32.453125 C 34.367188 -28.140625 38.601562 -24.804688 44.09375 -22.453125 C 49.582031 -20.109375 56.050781 -18.9375 63.5 -18.9375 Z M 63.5 -18.9375 "/></g></g></g><g fill="#ffffff" fill-opacity="1"><g transform="translate(131.977186, 491.117318)"><g><path d="M 28.109375 0 L 6 0 L 6 -66.796875 C 10.15625 -67.660156 14.757812 -68.441406 19.8125 -69.140625 C 24.875 -69.847656 29.96875 -70.414062 35.09375 -70.84375 C 40.226562 -71.28125 44.992188 -71.5 49.390625 -71.5 C 59.578125 -71.5 67.671875 -70.519531 73.671875 -68.5625 C 79.671875 -66.601562 83.960938 -63.390625 86.546875 -58.921875 C 89.128906 -54.453125 90.421875 -48.414062 90.421875 -40.8125 L 90.421875 0 L 68.328125 0 L 68.328125 -37.15625 C 68.328125 -42.957031 66.660156 -46.835938 63.328125 -48.796875 C 59.992188 -50.753906 55.191406 -51.734375 48.921875 -51.734375 C 45.234375 -51.734375 41.488281 -51.535156 37.6875 -51.140625 C 33.882812 -50.753906 30.691406 -50.367188 28.109375 -49.984375 Z M 28.109375 0 "/></g></g></g><g fill="#ffffff" fill-opacity="1"><g transform="translate(220.172845, 491.117318)"><g><path d="M 28.109375 0 L 6 0 L 6 -95.375 L 28.109375 -95.375 Z M 28.109375 0 "/></g></g></g><g fill="#ffffff" fill-opacity="1"><g transform="translate(246.043556, 491.117318)"><g><path d="M 17.171875 -76.90625 C 14.265625 -76.90625 11.769531 -77.671875 9.6875 -79.203125 C 7.613281 -80.734375 6.578125 -83.101562 6.578125 -86.3125 C 6.578125 -89.132812 7.578125 -91.367188 9.578125 -93.015625 C 11.578125 -94.660156 14.109375 -95.484375 17.171875 -95.484375 C 20.148438 -95.484375 22.640625 -94.660156 24.640625 -93.015625 C 26.640625 -91.367188 27.640625 -89.132812 27.640625 -86.3125 C 27.640625 -83.101562 26.597656 -80.734375 24.515625 -79.203125 C 22.441406 -77.671875 19.992188 -76.90625 17.171875 -76.90625 Z M 28.109375 0 L 6 0 L 6 -68.5625 L 28.109375 -68.5625 Z M 28.109375 0 "/></g></g></g><g fill="#ffffff" fill-opacity="1"><g transform="translate(271.914267, 491.117318)"><g><path d="M 28.109375 0 L 6 0 L 6 -66.796875 C 10.15625 -67.660156 14.757812 -68.441406 19.8125 -69.140625 C 24.875 -69.847656 29.96875 -70.414062 35.09375 -70.84375 C 40.226562 -71.28125 44.992188 -71.5 49.390625 -71.5 C 59.578125 -71.5 67.671875 -70.519531 73.671875 -68.5625 C 79.671875 -66.601562 83.960938 -63.390625 86.546875 -58.921875 C 89.128906 -54.453125 90.421875 -48.414062 90.421875 -40.8125 L 90.421875 0 L 68.328125 0 L 68.328125 -37.15625 C 68.328125 -42.957031 66.660156 -46.835938 63.328125 -48.796875 C 59.992188 -50.753906 55.191406 -51.734375 48.921875 -51.734375 C 45.234375 -51.734375 41.488281 -51.535156 37.6875 -51.140625 C 33.882812 -50.753906 30.691406 -50.367188 28.109375 -49.984375 Z M 28.109375 0 "/></g></g></g><g fill="#ffffff" fill-opacity="1"><g transform="translate(360.109914, 491.117318)"><g><path d="M 92.65625 -31.515625 L 92.65625 -30.21875 L 27.28125 -30.21875 C 28.375 -26.21875 30.878906 -23.0625 34.796875 -20.75 C 38.722656 -18.4375 44.253906 -17.28125 51.390625 -17.28125 C 56.722656 -17.28125 61.875 -17.945312 66.84375 -19.28125 C 71.820312 -20.613281 76.234375 -22.144531 80.078125 -23.875 L 89.71875 -6.828125 C 87.21875 -5.492188 83.925781 -4.140625 79.84375 -2.765625 C 75.769531 -1.390625 71.222656 -0.273438 66.203125 0.578125 C 61.179688 1.441406 56.007812 1.875 50.6875 1.875 C 41.59375 1.875 33.578125 0.40625 26.640625 -2.53125 C 19.703125 -5.46875 14.289062 -9.660156 10.40625 -15.109375 C 6.53125 -20.554688 4.59375 -27.082031 4.59375 -34.6875 L 4.59375 -34.921875 C 4.59375 -41.984375 6.394531 -48.253906 10 -53.734375 C 13.601562 -59.222656 18.734375 -63.535156 25.390625 -66.671875 C 32.054688 -69.804688 39.898438 -71.375 48.921875 -71.375 C 57.234375 -71.375 64.679688 -69.960938 71.265625 -67.140625 C 77.847656 -64.316406 83.054688 -59.96875 86.890625 -54.09375 C 90.734375 -48.21875 92.65625 -40.691406 92.65625 -31.515625 Z M 48.796875 -53.96875 C 43.785156 -53.96875 39.4375 -53.007812 35.75 -51.09375 C 32.0625 -49.175781 29.472656 -46.253906 27.984375 -42.328125 L 70.203125 -42.328125 C 69.109375 -45.859375 66.660156 -48.679688 62.859375 -50.796875 C 59.054688 -52.910156 54.367188 -53.96875 48.796875 -53.96875 Z M 48.796875 -53.96875 "/></g></g></g></svg>