<svg xmlns="http://www.w3.org/2000/svg" xmlns:xlink="http://www.w3.org/1999/xlink" width="1920" zoomAndPan="magnify" viewBox="0 0 1440 809.999993" height="1080" preserveAspectRatio="xMidYMid meet" version="1.0"><defs><g/></defs><path fill="#0097b2" d="M 662.042969 295.65625 L 411.78125 327.144531 C 418.886719 334.484375 423.855469 343.875 425.199219 354.609375 L 429.300781 384.519531 L 625.894531 375.601562 C 629.054688 375.367188 632.050781 376.785156 634.105469 379.15625 C 636.15625 381.601562 637.023438 384.757812 636.394531 387.835938 L 622.660156 458.472656 C 620.136719 471.652344 605.769531 481.121094 588.566406 481.121094 L 442.402344 481.121094 L 443.902344 491.855469 C 444.691406 498.011719 450.214844 502.746094 456.6875 502.746094 L 598.984375 502.746094 C 604.585938 502.746094 609.242188 507.324219 609.242188 513.003906 C 609.242188 518.609375 604.585938 523.265625 598.984375 523.265625 L 456.6875 523.265625 C 440.035156 523.265625 425.75 510.953125 423.542969 494.617188 L 404.835938 357.292969 C 403.023438 342.929688 390.394531 332.117188 375.558594 332.117188 L 372.480469 332.117188 L 346.59375 335.351562 C 332.9375 337.089844 323.230469 349.480469 324.890625 363.132812 L 352.273438 571.566406 C 354.328125 587.113281 367.269531 598.949219 382.976562 599.660156 L 628.265625 610.15625 C 645.785156 610.945312 660.859375 597.847656 662.59375 580.484375 L 688.164062 321.148438 C 689.664062 306.230469 676.957031 293.761719 662.042969 295.65625 Z M 474.683594 572.117188 C 465.449219 572.117188 457.949219 564.621094 457.949219 555.308594 C 457.949219 546.074219 465.449219 538.496094 474.683594 538.496094 C 483.996094 538.496094 491.492188 546.074219 491.492188 555.308594 C 491.492188 564.621094 483.996094 572.117188 474.683594 572.117188 Z M 565.679688 572.117188 C 556.367188 572.117188 548.867188 564.621094 548.867188 555.308594 C 548.867188 546.074219 556.367188 538.496094 565.679688 538.496094 C 574.914062 538.496094 582.410156 546.074219 582.410156 555.308594 C 582.410156 564.621094 574.914062 572.117188 565.679688 572.117188 Z M 565.679688 572.117188 " fill-opacity="1" fill-rule="nonzero"/><path fill="#0097b2" d="M 588.566406 460.679688 C 596.933594 460.679688 602.140625 456.734375 602.535156 454.605469 L 613.820312 396.753906 L 432.066406 404.960938 L 439.640625 460.679688 Z M 588.566406 460.679688 " fill-opacity="1" fill-rule="nonzero"/><g fill="#ffffff" fill-opacity="1"><g transform="translate(236.847781, 588.93635)"><g><path d="M 610.453125 -254.890625 C 609.253906 -254.671875 607.941406 -254.671875 606.515625 -254.890625 C 605.097656 -255.109375 603.789062 -255.707031 602.59375 -256.6875 C 601.175781 -258.101562 600.578125 -259.410156 600.796875 -260.609375 C 601.015625 -261.816406 601.503906 -262.910156 602.265625 -263.890625 C 613.722656 -282.335938 623.65625 -301.65625 632.0625 -321.84375 C 637.40625 -334.28125 642.097656 -347.101562 646.140625 -360.3125 C 648.753906 -368.5 648.972656 -377.285156 646.796875 -386.671875 C 644.722656 -396.710938 638.71875 -403.804688 628.78125 -407.953125 C 621.144531 -410.785156 613.34375 -412.3125 605.375 -412.53125 C 603.957031 -412.53125 602.539062 -412.53125 601.125 -412.53125 C 584.3125 -411.875 567.992188 -409.472656 552.171875 -405.328125 C 524.773438 -398.671875 498.28125 -390.40625 472.6875 -380.53125 C 447.101562 -370.65625 422.085938 -359.878906 397.640625 -348.203125 C 290.359375 -296.035156 194.316406 -230.113281 109.515625 -150.4375 C 88.128906 -131.226562 69.414062 -109.726562 53.375 -85.9375 C 47.800781 -77.539062 42.890625 -68.648438 38.640625 -59.265625 C 36.234375 -54.023438 34.539062 -48.40625 33.5625 -42.40625 C 29.957031 -22.976562 38.359375 -8.460938 58.765625 1.140625 C 76.015625 9.109375 93.53125 13.582031 111.3125 14.5625 C 125.28125 15.769531 138.867188 16.375 152.078125 16.375 C 158.296875 16.375 164.300781 16.097656 170.09375 15.546875 C 254.125 14.679688 333.460938 3.769531 408.109375 -17.1875 C 409.316406 -17.625 410.519531 -17.953125 411.71875 -18.171875 C 416.738281 -19.921875 422.03125 -21.285156 427.59375 -22.265625 C 429.007812 -22.484375 431.378906 -22.703125 434.703125 -22.921875 C 438.035156 -23.140625 441.203125 -22.945312 444.203125 -22.34375 C 447.210938 -21.738281 449.097656 -20.347656 449.859375 -18.171875 C 450.078125 -16.972656 449.882812 -16.070312 449.28125 -15.46875 C 448.6875 -14.863281 447.785156 -14.457031 446.578125 -14.25 C 441.992188 -13.039062 437.46875 -11.835938 433 -10.640625 C 419.46875 -7.035156 405.988281 -3.539062 392.5625 -0.15625 C 316.925781 19.257812 238.398438 28.695312 156.984375 28.15625 C 140.179688 28.15625 123.378906 27.828125 106.578125 27.171875 C 87.691406 26.410156 68.753906 22.425781 49.765625 15.21875 C 12.003906 0.59375 -1.195312 -23.519531 10.15625 -57.125 C 14.738281 -70.550781 21.226562 -82.941406 29.625 -94.296875 C 41.300781 -111.097656 54.234375 -126.703125 68.421875 -141.109375 C 82.609375 -155.515625 97.398438 -169.429688 112.796875 -182.859375 C 181.441406 -243.316406 256.960938 -295.265625 339.359375 -338.703125 C 364.566406 -351.910156 390.238281 -364.210938 416.375 -375.609375 C 442.519531 -387.015625 469.503906 -397.085938 497.328125 -405.828125 C 520.679688 -413.242188 544.691406 -418.863281 569.359375 -422.6875 C 579.296875 -424.101562 589.175781 -424.8125 599 -424.8125 C 605.4375 -424.8125 611.925781 -424.59375 618.46875 -424.15625 C 626.113281 -423.394531 633.753906 -421.8125 641.390625 -419.40625 C 662.128906 -411.988281 672.71875 -398.289062 673.15625 -378.3125 C 673.15625 -369.476562 671.953125 -360.96875 669.546875 -352.78125 C 664.523438 -336.957031 658.359375 -321.734375 651.046875 -307.109375 C 643.734375 -292.484375 635.878906 -278.1875 627.484375 -264.21875 C 625.078125 -259.414062 621.203125 -256.304688 615.859375 -254.890625 C 614.222656 -254.671875 612.691406 -254.671875 611.265625 -254.890625 Z M 610.453125 -254.890625 "/></g></g></g><g fill="#ffffff" fill-opacity="1"><g transform="translate(676.04651, 588.93635)"><g><path d="M 26.03125 -38.796875 L 25.53125 -38.796875 C 9.707031 -39.015625 -0.710938 -42.535156 -5.734375 -49.359375 C -10.753906 -56.179688 -10.535156 -65.265625 -5.078125 -76.609375 C -0.492188 -85.234375 5.289062 -92.765625 12.28125 -99.203125 C 14.675781 -101.390625 17.128906 -103.132812 19.640625 -104.4375 C 22.148438 -105.75 24.988281 -106.40625 28.15625 -106.40625 C 30.007812 -106.738281 32.140625 -106.410156 34.546875 -105.421875 C 35.304688 -105.203125 36.066406 -104.929688 36.828125 -104.609375 C 38.679688 -104.929688 40.484375 -105.53125 42.234375 -106.40625 C 42.671875 -106.738281 43.269531 -107.007812 44.03125 -107.21875 C 47.632812 -108.644531 51.457031 -109.25 55.5 -109.03125 C 57.132812 -109.03125 58.828125 -109.03125 60.578125 -109.03125 C 67.015625 -108.039062 71.867188 -105.335938 75.140625 -100.921875 C 78.410156 -96.503906 79.554688 -91.128906 78.578125 -84.796875 C 78.035156 -80.972656 76.832031 -77.375 74.96875 -74 C 62.425781 -51.507812 46.441406 -39.773438 27.015625 -38.796875 Z M 51.890625 -97.40625 C 43.273438 -97.726562 35.609375 -95.242188 28.890625 -89.953125 C 22.179688 -84.660156 17.1875 -78.578125 13.90625 -71.703125 C 10.632812 -64.828125 9.734375 -59.175781 11.203125 -54.75 C 12.679688 -50.332031 17.242188 -49.109375 24.890625 -51.078125 C 33.503906 -53.691406 41.113281 -58.597656 47.71875 -65.796875 C 54.320312 -73.003906 58.359375 -79.851562 59.828125 -86.34375 C 61.304688 -92.84375 58.660156 -96.53125 51.890625 -97.40625 Z M 51.890625 -97.40625 "/></g></g></g><g fill="#ffffff" fill-opacity="1"><g transform="translate(735.809967, 588.93635)"><g><path d="M 71.703125 -109.359375 C 72.140625 -109.359375 72.46875 -109.359375 72.6875 -109.359375 C 74.644531 -109.359375 76.578125 -109.25 78.484375 -109.03125 C 80.398438 -108.8125 81.847656 -107.828125 82.828125 -106.078125 C 84.035156 -104.222656 84.335938 -102.394531 83.734375 -100.59375 C 83.128906 -98.789062 82.226562 -97.019531 81.03125 -95.28125 C 80.8125 -94.625 80.429688 -94.019531 79.890625 -93.46875 C 74.648438 -84.414062 69.25 -75.414062 63.6875 -66.46875 C 55.0625 -52.601562 46.65625 -38.578125 38.46875 -24.390625 C 22.425781 3.441406 6.492188 31.4375 -9.328125 59.59375 C -14.128906 68.207031 -18.929688 76.828125 -23.734375 85.453125 C -25.484375 88.398438 -25.863281 90.472656 -24.875 91.671875 C -23.894531 92.867188 -22.34375 93.46875 -20.21875 93.46875 C -18.09375 93.46875 -15.828125 93.195312 -13.421875 92.65625 C -12.222656 92.65625 -11.242188 92.65625 -10.484375 92.65625 C -4.691406 92.21875 1.09375 91.617188 6.875 90.859375 C 16.914062 90.203125 27.117188 89.382812 37.484375 88.40625 C 39.890625 88.40625 42.128906 89.003906 44.203125 90.203125 C 44.523438 90.203125 44.796875 90.203125 45.015625 90.203125 C 45.234375 90.421875 45.394531 90.773438 45.5 91.265625 C 45.613281 91.753906 45.671875 92.242188 45.671875 92.734375 C 45.671875 93.222656 45.5625 93.578125 45.34375 93.796875 C 43.925781 95.003906 42.234375 95.828125 40.265625 96.265625 C 15.273438 100.078125 -9.820312 103.785156 -35.03125 107.390625 C -38.082031 107.929688 -41.300781 108.09375 -44.6875 107.875 C -48.289062 107.550781 -50.691406 106.378906 -51.890625 104.359375 C -53.085938 102.335938 -52.976562 99.910156 -51.5625 97.078125 C -28.539062 56.691406 -5.351562 16.203125 18 -24.390625 C 20.1875 -28.210938 21.71875 -30.832031 22.59375 -32.25 C 23.570312 -33.445312 24.003906 -34.179688 23.890625 -34.453125 C 23.785156 -34.734375 23.351562 -34.597656 22.59375 -34.046875 C 21.175781 -33.066406 18.609375 -32.164062 14.890625 -31.34375 C 11.179688 -30.53125 6.109375 -30.503906 -0.328125 -31.265625 C -9.710938 -32.679688 -15.003906 -37.921875 -16.203125 -46.984375 C -16.203125 -51.128906 -15.710938 -55.113281 -14.734375 -58.9375 C -12.660156 -67.332031 -8.84375 -74.914062 -3.28125 -81.6875 C 7.96875 -96.75 22.867188 -106.953125 41.421875 -112.296875 C 41.640625 -112.515625 41.859375 -112.625 42.078125 -112.625 C 46.441406 -114.039062 50.773438 -114.859375 55.078125 -115.078125 C 59.390625 -115.296875 63.726562 -113.769531 68.09375 -110.5 C 68.53125 -109.957031 69.101562 -109.628906 69.8125 -109.515625 C 70.53125 -109.410156 71.160156 -109.359375 71.703125 -109.359375 Z M 59.75 -94.296875 C 59.75 -94.515625 59.859375 -94.84375 60.078125 -95.28125 C 61.054688 -96.695312 61.898438 -98.25 62.609375 -99.9375 C 63.328125 -101.632812 63.382812 -102.972656 62.78125 -103.953125 C 62.175781 -104.929688 60.457031 -105.148438 57.625 -104.609375 C 45.070312 -101.984375 33.394531 -96.113281 22.59375 -87 C 11.789062 -77.894531 5.078125 -66.957031 2.453125 -54.1875 C 2.234375 -52.550781 2.125 -50.941406 2.125 -49.359375 C 2.125 -47.773438 2.832031 -46.273438 4.25 -44.859375 C 5.675781 -43.648438 7.175781 -43.289062 8.75 -43.78125 C 10.332031 -44.28125 11.835938 -45.019531 13.265625 -46 C 32.691406 -58.21875 48.1875 -74.316406 59.75 -94.296875 Z M 59.75 -94.296875 "/></g></g></g><g fill="#ffffff" fill-opacity="1"><g transform="translate(800.811529, 588.93635)"><g><path d="M 4.09375 -28.96875 C -6.269531 -28.96875 -11.453125 -34.375 -11.453125 -45.1875 C -11.453125 -58.382812 -2.882812 -81.679688 14.25 -115.078125 C 14.894531 -116.503906 16.09375 -117.21875 17.84375 -117.21875 C 24.71875 -117.21875 28.15625 -114.488281 28.15625 -109.03125 C 28.15625 -107.0625 27.554688 -104.660156 26.359375 -101.828125 C 25.921875 -101.054688 20.191406 -86.648438 9.171875 -58.609375 C 7.421875 -54.023438 6.546875 -50.640625 6.546875 -48.453125 C 6.546875 -46.054688 7.640625 -44.859375 9.828125 -44.859375 C 17.785156 -44.859375 38.679688 -64.664062 72.515625 -104.28125 C 76.878906 -109.625 81.191406 -112.296875 85.453125 -112.296875 C 91.671875 -112.296875 94.78125 -110.003906 94.78125 -105.421875 C 94.78125 -103.679688 92.875 -97.078125 89.0625 -85.609375 C 83.820312 -70.003906 81.203125 -61.003906 81.203125 -58.609375 C 81.203125 -55.003906 82.398438 -53.203125 84.796875 -53.203125 C 90.796875 -53.203125 108.3125 -63.898438 137.34375 -85.296875 C 138.976562 -86.710938 140.398438 -87.421875 141.609375 -87.421875 C 144.335938 -87.421875 145.703125 -85.128906 145.703125 -80.546875 C 145.703125 -79.335938 145.316406 -78.351562 144.546875 -77.59375 C 129.160156 -64.382812 116.066406 -54.34375 105.265625 -47.46875 C 95.441406 -41.144531 86.707031 -37.984375 79.0625 -37.984375 L 76.78125 -37.984375 C 65.539062 -40.378906 59.921875 -49.160156 59.921875 -64.328125 C 47.910156 -53.742188 37.945312 -45.203125 30.03125 -38.703125 C 22.125 -32.210938 13.476562 -28.96875 4.09375 -28.96875 Z M 4.09375 -28.96875 "/></g></g></g><g fill="#ffffff" fill-opacity="1"><g transform="translate(908.209009, 588.93635)"><g><path d="M 93.3125 -62.859375 C 86.976562 -56.640625 79.609375 -51.316406 71.203125 -46.890625 C 62.804688 -42.472656 55.769531 -39.582031 50.09375 -38.21875 C 44.414062 -36.851562 38.578125 -36.0625 32.578125 -35.84375 C 22.972656 -35.414062 14.132812 -36.726562 6.0625 -39.78125 C -7.144531 -45.125 -11.726562 -55.328125 -7.6875 -70.390625 C -3.875 -83.378906 3.867188 -93.53125 15.546875 -100.84375 C 27.222656 -108.15625 39.285156 -111.703125 51.734375 -111.484375 C 51.734375 -111.484375 51.84375 -111.484375 52.0625 -111.484375 C 55.226562 -111.703125 58.226562 -111.484375 61.0625 -110.828125 C 65.863281 -109.078125 68.914062 -106.238281 70.21875 -102.3125 C 71.53125 -98.382812 70.660156 -94.019531 67.609375 -89.21875 C 60.617188 -78.632812 51.125 -72.738281 39.125 -71.53125 C 31.15625 -70.769531 23.460938 -71.15625 16.046875 -72.6875 C 14.628906 -72.90625 13.375 -72.519531 12.28125 -71.53125 C 11.1875 -70.550781 10.53125 -69.351562 10.3125 -67.9375 C 8.132812 -58.550781 11.023438 -52.550781 18.984375 -49.9375 C 28.804688 -46.550781 39.015625 -46.550781 49.609375 -49.9375 C 61.828125 -53.75 73.445312 -60.945312 84.46875 -71.53125 C 95.488281 -82.125 101.84375 -87.066406 103.53125 -86.359375 C 105.226562 -85.648438 105.75 -83.601562 105.09375 -80.21875 C 103.570312 -74.863281 99.644531 -69.078125 93.3125 -62.859375 Z M 23.578125 -89.21875 C 22.921875 -88.457031 22.453125 -87.613281 22.171875 -86.6875 C 21.898438 -85.757812 22.257812 -84.910156 23.25 -84.140625 C 27.0625 -81.960938 31.207031 -81.171875 35.6875 -81.765625 C 40.164062 -82.367188 43.957031 -84.0625 47.0625 -86.84375 C 50.175781 -89.625 51.515625 -93.035156 51.078125 -97.078125 C 50.742188 -98.492188 49.976562 -99.390625 48.78125 -99.765625 C 47.582031 -100.148438 46.382812 -100.234375 45.1875 -100.015625 C 37.101562 -98.597656 29.898438 -95 23.578125 -89.21875 Z M 23.578125 -89.21875 "/></g></g></g><g fill="#ffffff" fill-opacity="1"><g transform="translate(976.320695, 588.93635)"><g><path d="M 102.3125 -79.0625 C 87.6875 -61.820312 73.363281 -49.109375 59.34375 -40.921875 C 45.320312 -32.734375 30.316406 -30.03125 14.328125 -32.8125 C -1.660156 -35.601562 -8.238281 -46.328125 -5.40625 -64.984375 C -3.4375 -74.367188 -0.757812 -83.539062 2.625 -92.5 C 11.019531 -113.34375 19.53125 -134.078125 28.15625 -154.703125 C 30.988281 -162.117188 33.988281 -169.59375 37.15625 -177.125 C 37.925781 -178.757812 38.632812 -180.394531 39.28125 -182.03125 C 40.488281 -184.757812 41.691406 -187.546875 42.890625 -190.390625 C 44.640625 -195.191406 42.726562 -197.703125 37.15625 -197.921875 C 33.988281 -197.921875 30.878906 -197.921875 27.828125 -197.921875 C 26.410156 -197.921875 24.828125 -197.921875 23.078125 -197.921875 C 21.441406 -197.703125 19.75 -197.484375 18 -197.265625 C 15.164062 -197.046875 12.359375 -196.9375 9.578125 -196.9375 C 6.796875 -196.9375 4.203125 -197.644531 1.796875 -199.0625 C 1.140625 -199.28125 0.617188 -199.6875 0.234375 -200.28125 C -0.140625 -200.882812 -0.328125 -201.570312 -0.328125 -202.34375 C -0.109375 -202.78125 0.242188 -203.296875 0.734375 -203.890625 C 1.222656 -204.492188 1.851562 -204.90625 2.625 -205.125 C 5.019531 -206.101562 7.53125 -206.8125 10.15625 -207.25 C 16.914062 -207.570312 23.625 -207.84375 30.28125 -208.0625 C 32.90625 -208.0625 35.195312 -208.0625 37.15625 -208.0625 C 41.519531 -208.0625 44.765625 -208.222656 46.890625 -208.546875 C 49.023438 -208.878906 50.742188 -210.023438 52.046875 -211.984375 C 53.359375 -213.953125 54.890625 -216.957031 56.640625 -221 C 57.617188 -223.1875 58.820312 -225.585938 60.25 -228.203125 C 63.84375 -235.835938 67.441406 -243.640625 71.046875 -251.609375 C 72.679688 -255.210938 74.375 -258.707031 76.125 -262.09375 C 77.539062 -265.476562 79.773438 -268.097656 82.828125 -269.953125 C 85.773438 -271.367188 88.34375 -271.257812 90.53125 -269.625 C 91.1875 -269.1875 91.703125 -268.472656 92.078125 -267.484375 C 92.460938 -266.503906 92.65625 -265.632812 92.65625 -264.875 C 92.65625 -260.613281 91.5625 -256.410156 89.375 -252.265625 C 88.945312 -251.390625 88.457031 -250.351562 87.90625 -249.15625 C 86.488281 -245.226562 84.960938 -241.242188 83.328125 -237.203125 C 80.160156 -229.785156 77.160156 -222.203125 74.328125 -214.453125 C 73.554688 -213.035156 73.523438 -211.78125 74.234375 -210.6875 C 74.941406 -209.59375 76.007812 -209.046875 77.4375 -209.046875 C 85.1875 -208.828125 92.769531 -208.71875 100.1875 -208.71875 C 104.007812 -208.71875 107.828125 -208.71875 111.640625 -208.71875 C 123.648438 -208.5 128.453125 -206.804688 126.046875 -203.640625 C 124.410156 -201.785156 122.632812 -200.722656 120.71875 -200.453125 C 118.8125 -200.179688 116.878906 -200.207031 114.921875 -200.53125 C 113.722656 -200.53125 112.519531 -200.53125 111.3125 -200.53125 C 99.09375 -199.769531 86.976562 -199.28125 74.96875 -199.0625 C 69.40625 -199.0625 65.695312 -196.550781 63.84375 -191.53125 C 61.875 -186.726562 59.960938 -181.925781 58.109375 -177.125 C 55.378906 -170.800781 52.816406 -164.632812 50.421875 -158.625 C 48.015625 -152.945312 45.613281 -147.21875 43.21875 -141.4375 C 37 -126.8125 30.992188 -112.132812 25.203125 -97.40625 C 21.609375 -87.800781 18.773438 -77.976562 16.703125 -67.9375 C 12.117188 -49.707031 19.15625 -42.722656 37.8125 -46.984375 C 56.144531 -51.347656 75.351562 -64.550781 95.4375 -86.59375 C 104.164062 -92.164062 106.457031 -89.65625 102.3125 -79.0625 Z M 102.3125 -79.0625 "/></g></g></g><g fill="#ffffff" fill-opacity="1"><g transform="translate(1042.140712, 588.93635)"><g><path d="M 102.3125 -79.0625 C 87.6875 -61.820312 73.363281 -49.109375 59.34375 -40.921875 C 45.320312 -32.734375 30.316406 -30.03125 14.328125 -32.8125 C -1.660156 -35.601562 -8.238281 -46.328125 -5.40625 -64.984375 C -3.4375 -74.367188 -0.757812 -83.539062 2.625 -92.5 C 11.019531 -113.34375 19.53125 -134.078125 28.15625 -154.703125 C 30.988281 -162.117188 33.988281 -169.59375 37.15625 -177.125 C 37.925781 -178.757812 38.632812 -180.394531 39.28125 -182.03125 C 40.488281 -184.757812 41.691406 -187.546875 42.890625 -190.390625 C 44.640625 -195.191406 42.726562 -197.703125 37.15625 -197.921875 C 33.988281 -197.921875 30.878906 -197.921875 27.828125 -197.921875 C 26.410156 -197.921875 24.828125 -197.921875 23.078125 -197.921875 C 21.441406 -197.703125 19.75 -197.484375 18 -197.265625 C 15.164062 -197.046875 12.359375 -196.9375 9.578125 -196.9375 C 6.796875 -196.9375 4.203125 -197.644531 1.796875 -199.0625 C 1.140625 -199.28125 0.617188 -199.6875 0.234375 -200.28125 C -0.140625 -200.882812 -0.328125 -201.570312 -0.328125 -202.34375 C -0.109375 -202.78125 0.242188 -203.296875 0.734375 -203.890625 C 1.222656 -204.492188 1.851562 -204.90625 2.625 -205.125 C 5.019531 -206.101562 7.53125 -206.8125 10.15625 -207.25 C 16.914062 -207.570312 23.625 -207.84375 30.28125 -208.0625 C 32.90625 -208.0625 35.195312 -208.0625 37.15625 -208.0625 C 41.519531 -208.0625 44.765625 -208.222656 46.890625 -208.546875 C 49.023438 -208.878906 50.742188 -210.023438 52.046875 -211.984375 C 53.359375 -213.953125 54.890625 -216.957031 56.640625 -221 C 57.617188 -223.1875 58.820312 -225.585938 60.25 -228.203125 C 63.84375 -235.835938 67.441406 -243.640625 71.046875 -251.609375 C 72.679688 -255.210938 74.375 -258.707031 76.125 -262.09375 C 77.539062 -265.476562 79.773438 -268.097656 82.828125 -269.953125 C 85.773438 -271.367188 88.34375 -271.257812 90.53125 -269.625 C 91.1875 -269.1875 91.703125 -268.472656 92.078125 -267.484375 C 92.460938 -266.503906 92.65625 -265.632812 92.65625 -264.875 C 92.65625 -260.613281 91.5625 -256.410156 89.375 -252.265625 C 88.945312 -251.390625 88.457031 -250.351562 87.90625 -249.15625 C 86.488281 -245.226562 84.960938 -241.242188 83.328125 -237.203125 C 80.160156 -229.785156 77.160156 -222.203125 74.328125 -214.453125 C 73.554688 -213.035156 73.523438 -211.78125 74.234375 -210.6875 C 74.941406 -209.59375 76.007812 -209.046875 77.4375 -209.046875 C 85.1875 -208.828125 92.769531 -208.71875 100.1875 -208.71875 C 104.007812 -208.71875 107.828125 -208.71875 111.640625 -208.71875 C 123.648438 -208.5 128.453125 -206.804688 126.046875 -203.640625 C 124.410156 -201.785156 122.632812 -200.722656 120.71875 -200.453125 C 118.8125 -200.179688 116.878906 -200.207031 114.921875 -200.53125 C 113.722656 -200.53125 112.519531 -200.53125 111.3125 -200.53125 C 99.09375 -199.769531 86.976562 -199.28125 74.96875 -199.0625 C 69.40625 -199.0625 65.695312 -196.550781 63.84375 -191.53125 C 61.875 -186.726562 59.960938 -181.925781 58.109375 -177.125 C 55.378906 -170.800781 52.816406 -164.632812 50.421875 -158.625 C 48.015625 -152.945312 45.613281 -147.21875 43.21875 -141.4375 C 37 -126.8125 30.992188 -112.132812 25.203125 -97.40625 C 21.609375 -87.800781 18.773438 -77.976562 16.703125 -67.9375 C 12.117188 -49.707031 19.15625 -42.722656 37.8125 -46.984375 C 56.144531 -51.347656 75.351562 -64.550781 95.4375 -86.59375 C 104.164062 -92.164062 106.457031 -89.65625 102.3125 -79.0625 Z M 102.3125 -79.0625 "/></g></g></g><g fill="#ffffff" fill-opacity="1"><g transform="translate(1107.960679, 588.93635)"><g><path d="M 93.3125 -62.859375 C 86.976562 -56.640625 79.609375 -51.316406 71.203125 -46.890625 C 62.804688 -42.472656 55.769531 -39.582031 50.09375 -38.21875 C 44.414062 -36.851562 38.578125 -36.0625 32.578125 -35.84375 C 22.972656 -35.414062 14.132812 -36.726562 6.0625 -39.78125 C -7.144531 -45.125 -11.726562 -55.328125 -7.6875 -70.390625 C -3.875 -83.378906 3.867188 -93.53125 15.546875 -100.84375 C 27.222656 -108.15625 39.285156 -111.703125 51.734375 -111.484375 C 51.734375 -111.484375 51.84375 -111.484375 52.0625 -111.484375 C 55.226562 -111.703125 58.226562 -111.484375 61.0625 -110.828125 C 65.863281 -109.078125 68.914062 -106.238281 70.21875 -102.3125 C 71.53125 -98.382812 70.660156 -94.019531 67.609375 -89.21875 C 60.617188 -78.632812 51.125 -72.738281 39.125 -71.53125 C 31.15625 -70.769531 23.460938 -71.15625 16.046875 -72.6875 C 14.628906 -72.90625 13.375 -72.519531 12.28125 -71.53125 C 11.1875 -70.550781 10.53125 -69.351562 10.3125 -67.9375 C 8.132812 -58.550781 11.023438 -52.550781 18.984375 -49.9375 C 28.804688 -46.550781 39.015625 -46.550781 49.609375 -49.9375 C 61.828125 -53.75 73.445312 -60.945312 84.46875 -71.53125 C 95.488281 -82.125 101.84375 -87.066406 103.53125 -86.359375 C 105.226562 -85.648438 105.75 -83.601562 105.09375 -80.21875 C 103.570312 -74.863281 99.644531 -69.078125 93.3125 -62.859375 Z M 23.578125 -89.21875 C 22.921875 -88.457031 22.453125 -87.613281 22.171875 -86.6875 C 21.898438 -85.757812 22.257812 -84.910156 23.25 -84.140625 C 27.0625 -81.960938 31.207031 -81.171875 35.6875 -81.765625 C 40.164062 -82.367188 43.957031 -84.0625 47.0625 -86.84375 C 50.175781 -89.625 51.515625 -93.035156 51.078125 -97.078125 C 50.742188 -98.492188 49.976562 -99.390625 48.78125 -99.765625 C 47.582031 -100.148438 46.382812 -100.234375 45.1875 -100.015625 C 37.101562 -98.597656 29.898438 -95 23.578125 -89.21875 Z M 23.578125 -89.21875 "/></g></g></g></svg>